<svg id="Layer_1" data-name="Layer 1" xmlns="http://www.w3.org/2000/svg" xmlns:xlink="http://www.w3.org/1999/xlink" viewBox="0 0 799.9 819.64"><defs><style>.cls-1{fill:#f2f2f2;}.cls-2{fill:url(#linear-gradient);}.cls-3{fill:url(#linear-gradient-2);}.cls-4{fill:url(#linear-gradient-3);}.cls-5{fill:url(#linear-gradient-4);}.cls-6{fill:#fff;}.cls-7{fill:none;stroke:#fff;stroke-linecap:round;stroke-miterlimit:10;stroke-width:26px;opacity:0.75;}</style><linearGradient id="linear-gradient" x1="898.14" y1="1225.94" x2="749.42" y2="968.33" gradientTransform="translate(268.69 -481.78) scale(0.65 0.58)" gradientUnits="userSpaceOnUse"><stop offset="1" stop-color="#1b0053"/><stop offset="1" stop-color="#350054"/><stop offset="1" stop-color="#605"/></linearGradient><linearGradient id="linear-gradient-2" x1="827.61" y1="815.21" x2="916.47" y2="815.21" gradientTransform="matrix(0.74, 0.43, -0.74, 0.43, 682.47, -490.49)" xlink:href="#linear-gradient"/><linearGradient id="linear-gradient-3" x1="710.54" y1="786.2" x2="381.59" y2="216.45" gradientTransform="translate(-1.33 1047.34) rotate(-90)" gradientUnits="userSpaceOnUse"><stop offset="0" stop-color="#1b0053"/><stop offset="0.43" stop-color="#3e0054"/><stop offset="1" stop-color="#700055"/></linearGradient><linearGradient id="linear-gradient-4" x1="445.38" y1="677.33" x2="354.52" y2="162.05" gradientUnits="userSpaceOnUse"><stop offset="0" stop-color="red"/><stop offset="0.62" stop-color="#ff5626"/><stop offset="1" stop-color="#ff883c"/></linearGradient></defs><title>logo</title><circle class="cls-1" cx="399.95" cy="419.69" r="399.95"/><polygon class="cls-1" points="50.52 792.11 201.52 748.4 94.23 641.12 50.52 792.11"/><path class="cls-2" d="M779.4,68.44h53.22A5.58,5.58,0,0,1,838.2,74v149.4A21.24,21.24,0,0,1,817,244.66h-21.9a21.24,21.24,0,0,1-21.24-21.24V74a5.58,5.58,0,0,1,5.58-5.58Z" transform="translate(1165.19 756.87) rotate(-135)"/><rect class="cls-3" x="705.69" y="210.7" width="37.51" height="54.82" transform="translate(968.29 838.43) rotate(-135)"/><circle class="cls-4" cx="500" cy="501.28" r="328.89" transform="translate(-128.82 -49.86) rotate(-3.39)"/><circle class="cls-5" cx="399.95" cy="419.69" r="261.57"/><path class="cls-6" d="M691.87,496.47A42.42,42.42,0,0,0,620,466.1c-28.94-19-68.1-31.16-111.46-32.71l23.71-74.65,64.21,15-.1.93a34.89,34.89,0,1,0,2.45-12.55l-69.22-16.23a5.92,5.92,0,0,0-7,4l-26.45,83.26c-45.38.54-86.49,12.76-116.72,32.38a42.23,42.23,0,1,0-50.17,67.24,75.41,75.41,0,0,0-1.38,13.7c0,62.53,76.88,113.41,171.39,113.41S670.61,609,670.61,546.48a75.92,75.92,0,0,0-1.2-13A42.11,42.11,0,0,0,691.87,496.47Zm-275.4,29a25.29,25.29,0,1,1,25.3,25.17A25.28,25.28,0,0,1,416.47,525.5Zm144.88,74.65C548.61,612.84,528.61,619,500.21,619l-.21,0-.21,0c-28.41,0-48.42-6.17-61.14-18.85a5.93,5.93,0,0,1,8.41-8.36c10.39,10.35,27.65,15.37,52.73,15.37l.21,0,.21,0c25.09,0,42.34-5,52.73-15.38a5.94,5.94,0,1,1,8.41,8.38Zm-3-49.49a25.18,25.18,0,1,1,25.28-25.17A25.25,25.25,0,0,1,558.33,550.67Z" transform="translate(-100.05 -80.31)"/><path class="cls-7" d="M298.44,417.57S320.87,346.3,390.3,312" transform="translate(-100.05 -80.31)"/></svg>